<svg width="828" height="890" viewBox="0 0 828 890" fill="none" xmlns="http://www.w3.org/2000/svg">
<path d="M1.5 1.5C39.99 25.5562 74.1601 64.9984 113.19 88.6954C167.77 121.833 241.23 135.821 304.293 139.577C349.713 142.281 406.928 129.22 417.287 76.9536C424.323 41.452 393.84 14.3337 359.939 15.1813C320.389 16.17 330.014 67.4477 342.752 90.5673C368.457 137.223 421.854 161.101 467.317 183.481C542.113 220.301 619.871 261.521 702.665 276.735C744.012 284.333 788.474 286.737 811.745 242.36C830.149 207.264 837.738 135.186 800.343 107.414C781.968 93.7681 762.099 106.588 748.611 118.135C717.151 145.069 705.614 189.596 698.41 228.406C684.551 303.07 685.863 381.609 687.179 457.287C688.111 510.867 689.615 564.785 695.347 618.099C698.116 643.843 696.369 669.575 700.453 695.357C708.195 744.247 725.525 781.689 758.821 817.881C776.631 837.239 788.511 869.511 807.5 888.5" stroke="#EA5230" stroke-width="2" stroke-linecap="round"/>
</svg>
