<svg width="375" height="1022" viewBox="0 0 375 1022" fill="none" xmlns="http://www.w3.org/2000/svg">
<path d="M1.4082 1.11499C61.4831 63.8599 123.254 124.549 185.899 184.718C238.05 234.807 290.567 305.698 275.035 383.719C269.758 410.228 250.165 433.573 221.435 434.95C192.864 436.32 179.618 410.803 173.314 387.421C161.408 343.262 171.029 248.1 240.684 276.815C287.142 295.967 324.526 356.135 342.85 400.303C371.235 468.723 378.204 553.026 370.983 626.104C359.549 741.81 257.986 831.289 175.683 902.693C134.344 938.557 90.9185 970.609 45.8282 1001.45C30.7527 1011.77 31.0767 1007.21 19.999 1020.5" stroke="#EA5230" stroke-width="2" stroke-linecap="round"/>
</svg>
