<svg width="407" height="1026" viewBox="0 0 407 1026" fill="none" xmlns="http://www.w3.org/2000/svg">
<path d="M386.107 1C433.573 41.1761 386.516 104.025 344.712 135.74C293.393 174.674 222.756 201.179 159.763 214.09C111.942 223.891 54.4924 226.767 15.651 191.891C-6.9538 171.594 -4.65007 143.346 31.3346 145.897C72.108 148.787 110.528 174.198 132.835 206.69C163.459 251.297 177.329 312.527 186.988 364.404C198.488 426.175 198.198 486.276 189.059 548.235C177.638 625.667 153.17 700.819 144.967 778.784C140.934 817.118 154.501 861.707 165.09 897.759C180.739 951.045 155.35 969.724 202.241 1002.95C209.507 1008.1 271.535 1025 280.684 1025" stroke="#EA5230" stroke-width="2" stroke-linecap="round"/>
</svg>
