<svg width="839" height="1019" viewBox="0 0 839 1019" fill="none" xmlns="http://www.w3.org/2000/svg">
<path d="M1 1C24.1676 16.1366 38.8805 41.3447 53.1053 64.4698C72.4508 95.9195 98.6408 136.115 100.474 174.801C102.068 208.443 55.0249 236.609 25.2763 222.551C-19.9319 201.188 52.5289 162.393 68.7961 157.005C127.238 137.651 204.877 134.854 251.461 182.215C274.198 205.332 285.395 238.141 294.833 268.226C306.074 304.059 314.666 340.848 320.441 377.963C324.415 403.507 325.124 428.56 326.066 454.186C328.32 515.463 339.358 581.454 367.217 636.588C392.858 687.331 436.029 725.983 478.237 762.638C537.979 814.52 598.191 851.798 677.185 867.037C727.445 876.733 810.59 890.132 833.501 828.48C840.409 809.891 842.187 785.503 817.81 785.772C799.439 785.974 779.868 793.534 770.146 810.092C754.63 836.517 756.908 875.721 758.896 905C760.559 929.51 763.984 951.398 776.363 972.622C787.243 991.278 796.833 1004.51 813.665 1018" stroke="#EA5230" stroke-width="2" stroke-linecap="round"/>
</svg>
